<svg width="38" height="25" viewBox="0 0 38 25" fill="none" xmlns="http://www.w3.org/2000/svg">
<path d="M1.94502 20.1905C2.02337 19.908 2.05413 19.899 2.32275 20.0802C2.4803 20.1865 2.60397 20.3369 2.70746 20.548C2.8257 20.7893 2.92517 20.8972 3.14996 21.0277C3.30945 21.1204 3.48839 21.1894 3.54762 21.1812C3.67173 21.1639 3.66922 20.6969 3.54216 20.1613C3.49523 19.9635 3.457 19.7313 3.4572 19.6454C3.45739 19.5595 3.41741 19.3929 3.36834 19.2753C3.31926 19.1577 3.29492 18.8111 3.31422 18.5051C3.34532 18.0121 3.37637 17.9308 3.58638 17.7921C3.79137 17.6568 3.88289 17.6573 4.26275 17.7958C5.35766 18.195 6.18039 19.5204 5.81304 20.2934C5.68789 20.5567 5.62827 20.6082 5.36894 20.6773C5.14619 20.7366 5.04539 20.7206 4.97564 20.615C4.92405 20.5368 4.9035 20.4586 4.92997 20.4411C4.95645 20.4236 4.90204 20.3192 4.80904 20.209C4.64744 20.0175 4.6494 20.0024 4.85298 19.868C5.0819 19.7168 5.18353 19.2837 5.04082 19.0675C4.92174 18.8871 4.52611 18.645 4.34927 18.6444C4.21277 18.6438 4.19323 18.7137 4.21661 19.1189C4.2317 19.3802 4.33088 20.0026 4.43702 20.502C4.68264 21.6575 4.67314 21.7547 4.28956 22.0079C4.01197 22.1912 3.95523 22.1957 3.61645 22.0623C3.05311 21.8403 2.76703 21.6024 2.30658 20.9731C1.9106 20.4319 1.89028 20.3879 1.94502 20.1905ZM7.99941 15.6346C9.88568 12.5914 12.3008 9.45951 12.8032 9.05492C13.0705 8.94868 14.2521 8.87771 14.5956 8.80609C14.9392 8.73447 15.4483 8.62241 15.727 8.55705C17.5263 8.21239 18.0283 7.91032 19.6766 7.48999C20.7988 7.18399 21.8157 6.93625 22.9228 6.58208C23.9356 6.25679 24.152 6.24 24.4179 6.46595C24.9757 7.04507 24.1734 7.5209 23.8968 7.86745C23.6705 8.15157 23.1198 8.77049 22.673 9.24283C21.3356 11.2283 19.9726 12.6954 18.5542 14.5151C18.0149 16.1279 16.3843 15.9871 15.4712 16.4006C13.7225 17.0589 11.5468 17.6446 9.45017 18.0848C7.2011 18.7502 5.85625 18.4758 7.99941 15.6346ZM9.15864 17.074C11.3838 16.5246 14.8657 15.8761 16.3395 14.8622C16.3425 14.7341 15.6135 13.8252 15.522 13.8429C15.3401 13.8779 14.7636 13.6512 14.5728 13.4695C13.575 12.8107 13.6394 11.5411 13.9262 11.178C13.8713 11.0844 13.7475 10.9126 13.5844 10.6122L13.2738 10.1127L12.6004 10.8693C10.8402 13.5098 9.67835 14.8998 8.8237 16.0601C8.65855 16.4368 8.47224 16.8523 8.40965 16.9834C8.34707 17.1146 8.3291 17.2298 8.36972 17.2395C8.41034 17.2492 8.76536 17.1747 9.15864 17.074ZM15.2155 12.7844C15.6031 12.8215 16.0768 12.5945 16.2674 12.2804C16.3592 12.1292 16.3485 12.0848 16.1763 11.9004C16.0489 11.7205 15.8165 11.6639 15.703 11.4966C15.5776 11.3066 15.2415 11.2961 14.9726 11.4736C14.7746 11.6043 14.7267 11.7019 14.6951 12.0382C14.6452 12.5697 14.7649 12.7414 15.2155 12.7844ZM14.4995 10.642C14.919 10.365 15.2866 10.3607 15.7023 10.6279C15.9438 10.7485 16.1731 10.9114 16.3469 11.0806C16.7046 11.4306 17.0534 12.0863 17.06 12.4212C17.066 12.7286 16.8188 13.2708 16.6096 13.4089C16.5255 13.4644 16.4626 13.5577 16.4698 13.6163C16.4888 13.7707 16.9896 14.5099 17.0975 14.5429C17.1484 14.5584 17.3472 14.303 17.544 13.9694C18.8836 12.1888 19.7257 10.866 21.4959 8.91616C21.7089 8.68151 21.9234 8.46517 21.9727 8.43542C22.0546 8.38608 22.337 8.06227 22.4962 7.8353C22.5317 7.78465 21.9429 7.91842 21.1877 8.13259C19.5428 8.57785 18.4208 8.96522 16.837 9.35201C16.4805 9.43894 15.9889 9.56149 15.7444 9.62433C15.3791 9.74042 13.9977 9.90634 14.0416 10.0881C14.1851 10.5946 14.3923 10.7687 14.4995 10.642ZM24.1385 4.19865C24.1927 3.85833 24.2069 3.84225 24.727 3.53538C25.598 3.02139 26.688 2.49933 26.9474 2.47194C27.1322 2.45243 27.2465 2.5041 27.4295 2.68982C27.7784 3.04391 27.8062 3.16217 27.6478 3.61881C27.5693 3.84481 27.4946 4.03669 27.4817 4.04519C27.4689 4.0537 27.352 4.34588 27.222 4.69449C26.9984 5.29386 26.8486 6.0706 26.9322 6.19711C26.9531 6.22886 27.488 5.91368 28.1208 5.49671C28.7537 5.07989 29.3433 4.71929 29.4312 4.69575C29.5617 4.66082 29.6247 4.7039 29.7739 4.92994C29.8745 5.0823 29.9468 5.23452 29.9346 5.26821C29.8953 5.3763 28.5604 6.39606 27.8089 6.89206C27.0132 7.41741 26.8146 7.46541 26.5035 7.20828C26.1761 6.93764 26.0493 6.44371 26.1067 5.66269C26.1573 4.97497 26.328 4.25128 26.5106 3.95045C26.5613 3.86695 26.586 3.77342 26.5656 3.7426C26.5121 3.66167 26.2152 3.8156 25.3511 4.37208C24.5733 4.87299 24.4712 4.90013 24.2206 4.67246C24.1164 4.57773 24.0965 4.46286 24.1385 4.19865Z" fill="black"/>
<path d="M7.40979 17.7234L13.0901 9.48949L23.847 7.07054L17.1202 15.3765L7.40979 17.7234Z" fill="#3ACEFE"/>
</svg>
