<svg width="163" height="38" viewBox="0 0 163 38" fill="none" xmlns="http://www.w3.org/2000/svg">
<path d="M3.68628 19C3.68628 9.61116 11.2974 2 20.6863 2H144C153.389 2 161 9.61116 161 19C161 28.3888 153.389 36 144 36H20.6863C11.2974 36 3.68628 28.3888 3.68628 19Z" stroke="black" stroke-width="4"/>
<path d="M39.5931 19C39.5931 28.2226 31.3515 36 20.7966 36C10.2416 36 2 28.2226 2 19C2 9.7774 10.2416 2 20.7966 2C31.3515 2 39.5931 9.7774 39.5931 19Z" fill="#19FFFA" stroke="black" stroke-width="4"/>
<path d="M10.0277 18.1892C9.12559 17.2936 8.37477 16.2852 7.79893 15.1961C6.85791 13.4055 6.848 12.4107 7.05601 12.34C7.26403 12.2692 10.2852 12.3886 11.6621 12.3975C13.0389 12.4063 13.6432 12.3975 13.6432 12.3267C13.6432 12.256 13.4401 10.2886 13.2667 9.2098C13.0934 8.13103 12.9201 7.44133 13.0241 7.41481C14.4691 7.50984 15.8883 7.80827 17.2289 8.29904C19.7053 9.10811 20.2006 9.89508 20.2006 9.89508C21.5986 8.94567 23.1391 8.17624 24.7769 7.60934C27.174 6.85774 28.1249 6.96385 28.2042 7.08764C28.2834 7.21143 27.075 12.1233 27.283 12.1808C28.3919 12.168 29.4923 12.0055 30.5468 11.6989C31.8989 11.3054 34.0137 10.3726 34.2366 10.3726C34.4595 10.3726 34.6427 11.9288 33.7116 13.8476C32.7805 15.7664 32.5576 16.0228 32.6418 16.0582C33.3283 15.9039 34.0006 15.7029 34.6526 15.4569C35.351 15.1961 35.7175 15.1563 35.8017 15.3773C36.0226 17.0141 35.5703 18.6669 34.5288 20.0284C32.944 21.9118 32.2456 22.0091 32.1812 22.0842C32.1168 22.1594 32.1812 22.5617 33.7116 22.8447C35.242 23.1276 36.0146 23.1055 35.9998 23.3973C35.8293 24.0698 35.5091 24.7048 35.0582 25.2646C34.6072 25.8244 34.0348 26.2974 33.3748 26.6557C31.3492 27.7345 31.2254 27.7345 31.2699 27.8804C31.3145 28.0263 31.3393 30.9752 31.2699 31.2007C31.2006 31.4262 30.5122 31.8108 29.4226 31.6428C28.4362 31.4783 27.4798 31.1942 26.5797 30.7983C26.3646 30.6683 26.164 30.5203 25.9804 30.3562C25.9804 30.3562 24.1578 31.2139 23.7269 31.3643C23.4685 31.4547 23.1993 31.5185 22.9246 31.5544C22.9246 31.5544 22.9246 32.8011 22.875 32.8807C22.8162 32.925 22.7467 32.9565 22.6719 32.9726C22.5971 32.9887 22.5191 32.989 22.4442 32.9736C22.185 32.936 21.9208 32.936 21.6616 32.9736C21.4989 33.0088 21.3291 33.0088 21.1664 32.9736C20.9059 32.9551 20.6443 32.9551 20.3838 32.9736C20.156 32.9736 19.6013 32.9736 19.5617 32.8498C19.522 32.726 19.4478 31.6561 19.4478 31.6561C18.6693 31.6029 17.9086 31.4215 17.2042 31.1211C16.765 30.9103 16.371 30.6319 16.0403 30.2988C15.3827 30.8749 14.5485 31.2642 13.6432 31.4173C12.3307 31.5544 11.6274 31.4173 11.6621 31.32C11.6967 31.2228 12.7071 28.3004 12.4594 28.3225C12.2118 28.3446 7.91779 28.4993 7.56615 28.5038C7.2145 28.5082 6.82324 28.1412 6.96191 27.8671C7.10059 27.593 8.94301 24.8784 9.64629 24.2506C10.3496 23.6228 10.726 23.2337 10.726 23.2337C9.84957 22.9037 8.92896 22.6763 7.98713 22.5573C6.63008 22.4202 5.92679 22.0223 6.00604 21.872C6.58933 20.9916 7.31722 20.1943 8.16543 19.5067C9.14607 18.786 10.0277 18.1892 10.0277 18.1892Z" fill="#1D1D1B"/>
<path d="M8.04673 13.065C8.19531 12.9324 14.728 13.0916 14.7478 12.981C14.7676 12.8705 13.8216 8.05143 14.0098 8.05143C15.5566 8.45549 17.0508 9.00534 18.4673 9.69168C19.7698 10.4344 19.8342 10.7086 20.1809 10.6909C20.5276 10.6732 22.162 9.28052 24.3561 8.53334C26.5501 7.78616 27.2881 7.74195 27.2881 7.81711C27.2881 7.89227 26.5799 11.0446 26.4412 11.6326C26.3025 12.2206 26.2233 12.844 26.3718 12.8793C27.7509 12.9148 29.1282 12.7657 30.4578 12.4372C32.4092 11.9465 33.8009 11.2568 33.8208 11.385C33.3588 12.7683 32.7588 14.1118 32.0279 15.3994C31.4385 16.2129 31.1958 16.9114 31.3196 16.9645C31.4434 17.0176 32.1418 16.8319 33.4741 16.4738C34.8063 16.1156 34.9599 16.0582 34.9599 16.1156C34.9832 17.3135 34.6037 18.4901 33.8703 19.4934C33.075 20.4547 32.1502 21.3248 31.1166 22.0842C31.1866 22.3254 31.3104 22.5516 31.4806 22.7491C31.6508 22.9466 31.8639 23.1114 32.1071 23.2337C32.6866 23.468 34.9302 23.7643 34.9104 23.8748C34.3816 24.9916 33.458 25.9233 32.2805 26.5275C30.542 27.3277 30.334 27.4117 30.2994 27.5488C30.2647 27.6858 30.3885 30.7585 30.2449 30.7806C29.4066 30.7173 28.5772 30.5811 27.7685 30.3739C27.0652 30.1573 26.778 29.9583 26.778 29.9052C27.3373 29.2959 27.8082 28.6259 28.1796 27.9113C28.3785 27.487 28.5134 27.041 28.5808 26.585C28.5808 26.585 30.8442 26.6778 31.0571 25.2586C31.2701 23.8394 30.1211 23.5741 29.7942 23.5255C29.5781 23.4808 29.3573 23.4571 29.1355 23.4548C29.1355 23.4548 29.71 18.8965 27.9815 16.3809C26.253 13.8653 24.4106 12.5345 20.6712 12.6715C16.9319 12.8086 14.931 14.5638 14.0148 17.9769C13.0985 21.3901 13.3412 23.3398 13.3412 23.3398C13.3412 23.3398 11.5136 23.4061 11.5731 25.4266C11.6325 27.4471 14.0148 27.0448 14.0148 27.0448C14.0005 27.6544 14.1883 28.2543 14.5546 28.769C15.1589 29.5913 15.4263 29.9008 15.4263 29.9008C15.4263 29.9008 13.0143 30.7232 12.9945 30.5994C12.9747 30.4756 13.6136 28.5922 13.5294 28.3888C13.4452 28.1854 13.0341 27.7875 12.8856 27.7875C12.737 27.7875 8.07645 27.9688 8.03187 27.7875C7.9873 27.6062 9.06699 26.1296 10.1467 24.9093C11.2264 23.6891 11.7563 23.2293 11.7365 23.0613C11.7167 22.8933 10.9887 22.1284 9.40378 21.9206C7.81891 21.7128 7.18 21.757 7.21962 21.6819C7.99572 20.7914 8.8849 19.9843 9.86934 19.2768C10.3595 19.041 10.7855 18.712 11.1174 18.313C10.2739 17.4715 9.53491 16.5509 8.91346 15.5674C8.03683 14.0952 7.9873 13.1225 8.04673 13.065Z" fill="#85BFE9"/>
<path d="M15.3124 11.1463C15.1355 10.4874 14.9999 9.82029 14.9062 9.14795C15.5312 9.29855 16.1382 9.50288 16.719 9.75807C16.719 9.83323 16.719 10.1427 16.6595 10.1427C16.3081 10.0571 15.9507 9.99213 15.5897 9.94818C15.5897 10.0012 15.7631 10.8103 15.7433 10.8634C15.7235 10.9164 15.352 11.1949 15.3124 11.1463Z" fill="#1D1D1B"/>
<path d="M22.9741 10.0409C23.4665 9.66731 24.0089 9.34952 24.5887 9.09479C25.183 8.9091 25.084 8.81626 25.183 8.9091C25.2821 9.00195 25.4109 9.29375 25.3514 9.35122C24.8393 9.50771 24.3423 9.70142 23.8656 9.93039C23.3951 10.2089 23.3703 10.3725 23.2515 10.3371C23.1326 10.3018 23.0336 10.1161 22.9741 10.0409Z" fill="#1D1D1B"/>
<path d="M13.3065 24.1533C13.4947 24.8572 13.6107 25.5749 13.6532 26.2976C13.5938 26.2976 12.4794 26.1782 12.4745 25.462C12.4877 25.2007 12.57 24.946 12.7146 24.7185C12.8592 24.4911 13.0621 24.2974 13.3065 24.1533Z" fill="#E6E4DA"/>
<path d="M29.1603 24.171C29.2247 24.1135 30.3341 24.171 30.1508 25.0287C29.9676 25.8864 28.769 26.1782 28.7443 26.0632C28.8307 25.7149 28.9382 25.3711 29.0662 25.0331C29.2049 24.5158 29.0365 24.2815 29.1603 24.171Z" fill="#E6E4DA"/>
<path d="M20.597 13.4541C22.5781 13.4541 24.9801 13.5514 26.8523 16.4738C28.7244 19.3961 28.5213 21.7128 28.0112 24.3257C27.5011 26.9387 26.6888 28.5037 26.1837 28.9989C25.9899 29.2053 25.7779 29.3975 25.5497 29.5737C25.1693 29.3043 24.7614 29.0675 24.3313 28.8663C24.2273 28.9017 24.0837 29.0343 24.1283 29.105C24.1728 29.1758 25.1188 29.777 25.0792 29.8345C25.0396 29.892 24.5047 30.2236 24.4452 30.1705C24.0581 29.8706 23.6513 29.5916 23.2269 29.3349C23.1427 29.3349 22.9 29.5029 22.9396 29.5737C22.9792 29.6444 24.1184 30.2987 23.9945 30.3739C23.8707 30.4491 23.217 30.7099 23.1328 30.6569C23.0486 30.6038 22.1769 29.7991 22.0976 29.8036C22.0184 29.808 21.7906 29.9141 21.855 30.0069C21.9194 30.0998 22.5632 30.7895 22.5632 30.7895C21.223 30.9325 19.8675 30.9177 18.5317 30.7453C16.6992 30.4446 15.4065 28.6364 14.8171 26.7132C14.2278 24.79 14.2278 20.696 14.8667 18.4323C15.5056 16.1687 16.6249 13.4806 20.597 13.4541Z" fill="#E6E4DA"/>
<path d="M20.1166 31.6472C20.176 31.5942 20.7357 31.6781 21.2904 31.6472C21.8451 31.6163 22.1125 31.6251 22.1125 31.6781C22.1125 31.7312 22.1819 32.4868 22.1125 32.5045C21.8648 32.5709 21.6019 32.5786 21.3498 32.5265C21.1201 32.4228 20.8641 32.374 20.6069 32.3851C20.4038 32.4249 20.28 32.5531 20.2156 32.4779C20.1349 32.2072 20.1015 31.927 20.1166 31.6472Z" fill="#E6E4DA"/>
<path d="M16.5059 16.1467C16.6694 16.0936 17.9917 15.3818 21.1664 15.3995C24.3411 15.4172 26.1489 16.1732 26.1935 16.3943C26.238 16.6153 26.1935 17.4774 26.0201 17.4774C25.8468 17.4774 24.8612 16.8585 21.2209 16.8938C17.5807 16.9292 16.5356 17.7029 16.3326 17.5791C16.1295 17.4553 15.9116 16.3324 16.5059 16.1467Z" fill="#1D1D1B"/>
<path d="M16.714 16.4513C16.8378 16.2215 18.3336 15.7045 21.3349 15.8326C24.3363 15.9608 25.7429 16.4071 25.7429 16.5529C25.7429 16.6987 25.8469 16.9373 25.7429 16.9373C24.2662 16.5594 22.7312 16.3953 21.1963 16.4513C19.714 16.5019 18.2418 16.69 16.8032 17.0124C16.6348 16.9682 16.6744 16.5087 16.714 16.4513Z" fill="#85BFE9"/>
<path d="M22.5481 18.2201C23.93 17.7161 26.5103 18.0831 26.4162 20.5987C26.3221 23.1143 22.8849 23.468 21.721 22.0621C20.5572 20.6562 21.1119 18.7374 22.5481 18.2201Z" fill="#1D1D1B"/>
<path d="M22.766 18.6136C23.9002 18.1981 26.0051 18.4987 25.9407 20.5678C25.8763 22.6369 23.0384 22.9199 22.0825 21.7571C21.1266 20.5943 21.5873 19.0425 22.766 18.6136Z" fill="white"/>
<path d="M16.9022 18.1538C18.1751 17.6896 20.5375 18.0256 20.4632 20.3644C20.3889 22.7032 17.2093 23.0171 16.1345 21.7128C15.0598 20.4086 15.5798 18.6357 16.9022 18.1538Z" fill="#1D1D1B"/>
<path d="M17.1054 18.5207C18.1504 18.1405 20.077 18.4146 20.0325 20.3202C19.9879 22.2257 17.358 22.4909 16.4764 21.4299C15.5948 20.3688 16.0405 18.9186 17.1054 18.5207Z" fill="white"/>
<path d="M17.7788 19.9222C17.8674 19.8854 17.9656 19.8711 18.0627 19.881C18.1598 19.8909 18.252 19.9245 18.329 19.9782C18.406 20.0318 18.4649 20.1035 18.4991 20.1851C18.5333 20.2668 18.5416 20.3553 18.523 20.4409C18.5044 20.5265 18.4596 20.6058 18.3936 20.6701C18.3276 20.7344 18.243 20.7811 18.149 20.8052C18.0551 20.8293 17.9556 20.8297 17.8614 20.8064C17.7672 20.7832 17.6821 20.7372 17.6154 20.6734C17.563 20.6171 17.5254 20.5511 17.5051 20.4802C17.4847 20.4092 17.4823 20.3352 17.498 20.2633C17.5136 20.1915 17.5469 20.1236 17.5955 20.0647C17.644 20.0057 17.7066 19.957 17.7788 19.9222Z" fill="#1D1D1B"/>
<path d="M23.6032 20.1168C23.6917 20.0799 23.79 20.0656 23.8871 20.0755C23.9842 20.0854 24.0763 20.119 24.1533 20.1727C24.2303 20.2264 24.2892 20.298 24.3234 20.3796C24.3577 20.4613 24.3659 20.5498 24.3473 20.6354C24.3287 20.721 24.2839 20.8003 24.2179 20.8646C24.1519 20.9289 24.0673 20.9757 23.9734 20.9997C23.8795 21.0238 23.7799 21.0242 23.6857 21.001C23.5915 20.9777 23.5064 20.9317 23.4397 20.868C23.3874 20.8116 23.3497 20.7456 23.3294 20.6747C23.3091 20.6038 23.3067 20.5297 23.3223 20.4579C23.3379 20.386 23.3712 20.3182 23.4198 20.2592C23.4684 20.2002 23.531 20.1516 23.6032 20.1168Z" fill="#1D1D1B"/>
<path d="M16.0007 22.5263C16.4186 22.8479 16.9374 23.0469 17.4865 23.0964C18 23.1302 18.5162 23.0838 19.0119 22.9594C19.1159 22.9815 19.1159 23.2466 19.111 23.3173C18.5226 23.5363 17.875 23.5962 17.2488 23.4896C16.6866 23.4351 16.1622 23.2106 15.7629 22.8533C15.7184 22.7782 15.9412 22.5263 16.0007 22.5263Z" fill="#1D1D1B"/>
<path d="M23.3308 23.3395C23.8578 23.488 24.4233 23.488 24.9503 23.3395C25.4344 23.1948 25.8868 22.9766 26.2876 22.6943C26.3916 22.6943 26.5104 22.9241 26.5352 22.9904C26.0868 23.395 25.515 23.6731 24.8909 23.7902C24.3542 23.9263 23.7818 23.8967 23.2664 23.7062C23.1772 23.6709 23.2713 23.3572 23.3308 23.3395Z" fill="#1D1D1B"/>
<path d="M19.8937 23.4326C19.8937 23.3752 20.2552 23.3 20.28 23.3884C20.3048 23.4769 20.2107 26.2091 21.0576 26.1915C21.9045 26.1738 21.6222 23.3796 21.7014 23.3354C21.8308 23.3146 21.9633 23.3146 22.0927 23.3354C22.0927 23.3354 22.5632 26.691 21.0774 26.6734C19.5916 26.6557 19.8986 23.468 19.8937 23.4326Z" fill="#1D1D1B"/>
<path d="M16.1147 27.6365C16.0976 27.3759 16.1294 27.1145 16.2088 26.8632C16.3277 26.6246 16.7041 26.3462 16.7784 26.3639C16.8527 26.3816 17.026 26.5627 16.9666 26.6379C16.9072 26.713 16.5357 26.8986 16.5208 27.1195C16.506 27.3405 16.5208 27.7249 16.4664 27.7426C16.3396 27.741 16.2165 27.7039 16.1147 27.6365Z" fill="#1D1D1B"/>
<path d="M24.4946 26.4037C24.4946 26.4037 24.7571 26.1252 24.8413 26.1252C25.0089 26.1837 25.1615 26.2718 25.29 26.3843C25.4185 26.4967 25.5203 26.6311 25.5892 26.7795C25.7774 27.2216 25.7823 27.6416 25.6387 27.6637C25.4951 27.6858 25.2474 27.7212 25.2474 27.6637C25.2474 27.6062 25.4505 27.1111 25.2177 26.8193C25.0221 26.6261 24.7726 26.4827 24.4946 26.4037Z" fill="#1D1D1B"/>
<path d="M17.219 27.3188C17.3181 27.3498 18.3136 27.9551 20.6364 27.88C21.9529 27.8168 23.2523 27.5846 24.4946 27.1907C24.5539 27.3055 24.5827 27.431 24.5788 27.5574C24.5788 27.6326 22.9196 28.3749 20.5572 28.3396C18.1947 28.3042 17.12 27.7961 17.0903 27.7209C17.0606 27.6458 17.1596 27.3011 17.219 27.3188Z" fill="#1D1D1B"/>
<path d="M58.1361 30.9808C56.7012 30.9808 55.4238 30.7852 54.3037 30.3938C53.1837 30.007 52.2369 29.438 51.4632 28.6868C50.6895 27.9401 50.1003 27.027 49.6954 25.9474C49.2906 24.8679 49.0882 23.6399 49.0882 22.2635C49.0882 20.9051 49.2906 19.6726 49.6954 18.5661C50.1048 17.4595 50.7008 16.5104 51.4834 15.7188C52.2661 14.9226 53.2219 14.3108 54.351 13.8835C55.4845 13.4562 56.7754 13.2425 58.2238 13.2425C59.5643 13.2425 60.7608 13.4382 61.8133 13.8295C62.8704 14.2209 63.7655 14.7786 64.4987 15.5028C65.2364 16.2225 65.7964 17.0794 66.1787 18.0735C66.5656 19.0631 66.7567 20.1584 66.7522 21.3594C66.7567 22.187 66.6848 22.9472 66.5363 23.6399C66.3879 24.3326 66.154 24.9376 65.8346 25.4549C65.5198 25.9677 65.1059 26.3748 64.5932 26.6761C64.0804 26.973 63.4596 27.1417 62.7309 27.1822C62.2092 27.2227 61.7863 27.1844 61.4625 27.0675C61.1386 26.9505 60.8912 26.7773 60.7203 26.5479C60.5539 26.314 60.4459 26.0419 60.3964 25.7315H60.3155C60.2075 26.0014 59.9961 26.2466 59.6812 26.467C59.3664 26.6829 58.9818 26.8516 58.5275 26.973C58.0776 27.09 57.5986 27.1327 57.0903 27.1012C56.5595 27.0697 56.0557 26.946 55.5789 26.7301C55.1066 26.5142 54.6861 26.2016 54.3172 25.7923C53.9529 25.3829 53.665 24.8769 53.4536 24.2741C53.2467 23.6714 53.141 22.9742 53.1365 22.1825C53.141 21.3999 53.2512 20.7184 53.4671 20.1381C53.6875 19.5579 53.9776 19.0698 54.3375 18.674C54.7018 18.2782 55.1066 17.9678 55.552 17.7429C55.9973 17.518 56.4448 17.3741 56.8946 17.3111C57.4029 17.2346 57.8842 17.2346 58.3385 17.3111C58.7928 17.3875 59.1752 17.5112 59.4856 17.6822C59.8004 17.8531 59.9961 18.0375 60.0726 18.2354H60.167V17.4798H62.2789V24.065C62.2834 24.3754 62.3531 24.616 62.488 24.7869C62.623 24.9579 62.8052 25.0433 63.0346 25.0433C63.3449 25.0433 63.6036 24.9061 63.8105 24.6317C64.0219 24.3574 64.1793 23.9368 64.2828 23.37C64.3907 22.8033 64.4447 22.0813 64.4447 21.2042C64.4447 20.3585 64.3323 19.6164 64.1074 18.9776C63.8869 18.3344 63.5766 17.7879 63.1762 17.3381C62.7804 16.8838 62.3194 16.5149 61.7931 16.2315C61.2668 15.9482 60.6955 15.7412 60.0793 15.6108C59.4676 15.4804 58.8378 15.4151 58.1901 15.4151C57.0701 15.4151 56.0917 15.5861 55.2551 15.9279C54.4184 16.2653 53.7212 16.7398 53.1635 17.3516C52.6057 17.9633 52.1874 18.6808 51.9085 19.5039C51.6341 20.3226 51.4947 21.2154 51.4902 22.1825C51.4947 23.2486 51.6431 24.1932 51.9355 25.0163C52.2324 25.835 52.6687 26.5232 53.2444 27.081C53.8202 27.6387 54.5309 28.0616 55.3765 28.3494C56.2222 28.6373 57.1938 28.7812 58.2913 28.7812C58.8086 28.7812 59.3146 28.743 59.8094 28.6665C60.3042 28.5946 60.7518 28.5046 61.1521 28.3967C61.5524 28.2932 61.874 28.192 62.1169 28.093L62.7849 30.0497C62.5015 30.2116 62.1169 30.3623 61.6311 30.5018C61.1499 30.6457 60.6056 30.7604 59.9983 30.8459C59.3956 30.9358 58.7749 30.9808 58.1361 30.9808ZM57.8258 24.8814C58.3745 24.8814 58.8108 24.7757 59.1347 24.5643C59.4631 24.3529 59.697 24.0402 59.8364 23.6264C59.9803 23.2081 60.0478 22.6931 60.0388 22.0813C60.0343 21.5415 59.9646 21.085 59.8297 20.7116C59.6992 20.3338 59.4721 20.0482 59.1482 19.8548C58.8288 19.6568 58.3835 19.5579 57.8123 19.5579C57.313 19.5579 56.8879 19.6636 56.537 19.875C56.1907 20.0864 55.9253 20.3833 55.7409 20.7656C55.561 21.1435 55.4687 21.5888 55.4642 22.1016C55.4687 22.5784 55.5452 23.0304 55.6936 23.4577C55.8421 23.8806 56.0872 24.2247 56.4291 24.4901C56.7709 24.7509 57.2365 24.8814 57.8258 24.8814ZM72.4823 27.1687C71.6951 27.1687 70.9821 26.9663 70.3434 26.5614C69.7092 26.1521 69.2054 25.5516 68.8321 24.7599C68.4632 23.9638 68.2788 22.9877 68.2788 21.8317C68.2788 20.6442 68.47 19.6568 68.8523 18.8697C69.2346 18.078 69.7429 17.4865 70.3772 17.0952C71.0159 16.6993 71.7153 16.5014 72.4755 16.5014C73.0558 16.5014 73.5393 16.6004 73.9262 16.7983C74.3175 16.9917 74.6324 17.2346 74.8708 17.527C75.1137 17.8149 75.2981 18.0982 75.424 18.3771H75.5117V13.1818H78.3793V27H75.5455V25.3402H75.424C75.2891 25.6281 75.0979 25.9137 74.8505 26.1971C74.6076 26.476 74.2905 26.7076 73.8992 26.892C73.5123 27.0765 73.04 27.1687 72.4823 27.1687ZM73.3931 24.8814C73.8564 24.8814 74.2478 24.7554 74.5671 24.5036C74.891 24.2472 75.1384 23.8896 75.3093 23.4308C75.4848 22.9719 75.5725 22.4344 75.5725 21.8182C75.5725 21.2019 75.487 20.6667 75.3161 20.2124C75.1451 19.758 74.8977 19.4072 74.5739 19.1598C74.25 18.9124 73.8564 18.7887 73.3931 18.7887C72.9208 18.7887 72.5227 18.9169 72.1989 19.1733C71.875 19.4297 71.6299 19.785 71.4634 20.2393C71.297 20.6937 71.2138 21.2199 71.2138 21.8182C71.2138 22.4209 71.297 22.954 71.4634 23.4173C71.6344 23.8761 71.8795 24.2359 72.1989 24.4968C72.5227 24.7532 72.9208 24.8814 73.3931 24.8814ZM80.7425 16.6364H83.6168V27.5128C83.6168 28.3134 83.4593 28.9612 83.1445 29.456C82.8296 29.9508 82.3775 30.3129 81.7883 30.5423C81.2035 30.7717 80.5041 30.8864 79.6899 30.8864C79.591 30.8864 79.4965 30.8841 79.4065 30.8796C79.3121 30.8796 79.2131 30.8774 79.1097 30.8729V28.6261C79.1861 28.6306 79.2536 28.6328 79.3121 28.6328C79.3661 28.6373 79.4245 28.6396 79.4875 28.6396C79.9508 28.6396 80.2747 28.5406 80.4591 28.3427C80.648 28.1493 80.7425 27.8569 80.7425 27.4656V16.6364ZM82.1729 15.3004C81.7501 15.3004 81.3857 15.1587 81.0798 14.8754C80.774 14.5875 80.621 14.2434 80.621 13.843C80.621 13.4472 80.774 13.1076 81.0798 12.8242C81.3857 12.5363 81.7501 12.3924 82.1729 12.3924C82.6047 12.3924 82.9713 12.5363 83.2727 12.8242C83.5785 13.1076 83.7315 13.4472 83.7315 13.843C83.7315 14.2434 83.5785 14.5875 83.2727 14.8754C82.9713 15.1587 82.6047 15.3004 82.1729 15.3004ZM88.8745 27.1957C88.2133 27.1957 87.624 27.081 87.1067 26.8516C86.5895 26.6177 86.1801 26.2736 85.8788 25.8192C85.5819 25.3604 85.4334 24.7892 85.4334 24.1055C85.4334 23.5297 85.5391 23.0462 85.7506 22.6548C85.962 22.2635 86.2498 21.9486 86.6142 21.7102C86.9785 21.4718 87.3924 21.2919 87.8557 21.1705C88.3235 21.049 88.8138 20.9635 89.3265 20.9141C89.9293 20.8511 90.4151 20.7926 90.7839 20.7386C91.1528 20.6802 91.4204 20.5947 91.5868 20.4822C91.7533 20.3698 91.8365 20.2034 91.8365 19.983V19.9425C91.8365 19.5152 91.7015 19.1845 91.4317 18.9506C91.1663 18.7167 90.7884 18.5998 90.2981 18.5998C89.7809 18.5998 89.3693 18.7145 89.0634 18.9439C88.7575 19.1688 88.5551 19.4522 88.4562 19.794L85.7978 19.5781C85.9327 18.9484 86.1981 18.4041 86.5939 17.9453C86.9898 17.482 87.5003 17.1267 88.1256 16.8793C88.7553 16.6274 89.484 16.5014 90.3116 16.5014C90.8874 16.5014 91.4384 16.5689 91.9647 16.7038C92.4955 16.8388 92.9655 17.0479 93.3748 17.3313C93.7887 17.6147 94.1148 17.979 94.3532 18.4244C94.5916 18.8652 94.7108 19.3937 94.7108 20.0099V27H91.9849V25.5629H91.904C91.7375 25.8867 91.5149 26.1723 91.236 26.4197C90.9571 26.6626 90.622 26.8538 90.2307 26.9933C89.8393 27.1282 89.3873 27.1957 88.8745 27.1957ZM89.6976 25.212C90.1205 25.212 90.4938 25.1288 90.8177 24.9624C91.1415 24.7914 91.3957 24.562 91.5801 24.2741C91.7645 23.9863 91.8567 23.6602 91.8567 23.2958V22.196C91.7668 22.2545 91.6431 22.3085 91.4856 22.358C91.3327 22.4029 91.1595 22.4457 90.9661 22.4862C90.7727 22.5221 90.5793 22.5559 90.3859 22.5874C90.1924 22.6143 90.017 22.6391 89.8596 22.6616C89.5222 22.7111 89.2276 22.7898 88.9757 22.8977C88.7238 23.0057 88.5281 23.1519 88.3887 23.3363C88.2493 23.5162 88.1795 23.7411 88.1795 24.011C88.1795 24.4023 88.3212 24.7015 88.6046 24.9084C88.8925 25.1108 89.2568 25.212 89.6976 25.212ZM99.815 13.1818V27H96.9407V13.1818H99.815ZM106.8 27.2024C105.752 27.2024 104.846 26.9798 104.081 26.5344C103.321 26.0846 102.734 25.4594 102.32 24.6587C101.906 23.8536 101.699 22.9202 101.699 21.8587C101.699 20.7881 101.906 19.8525 102.32 19.0518C102.734 18.2467 103.321 17.6214 104.081 17.1761C104.846 16.7263 105.752 16.5014 106.8 16.5014C107.848 16.5014 108.752 16.7263 109.512 17.1761C110.277 17.6214 110.866 18.2467 111.28 19.0518C111.694 19.8525 111.901 20.7881 111.901 21.8587C111.901 22.9202 111.694 23.8536 111.28 24.6587C110.866 25.4594 110.277 26.0846 109.512 26.5344C108.752 26.9798 107.848 27.2024 106.8 27.2024ZM106.813 24.9759C107.29 24.9759 107.688 24.8409 108.008 24.571C108.327 24.2966 108.568 23.9233 108.73 23.451C108.896 22.9787 108.979 22.4412 108.979 21.8384C108.979 21.2357 108.896 20.6982 108.73 20.2259C108.568 19.7536 108.327 19.3802 108.008 19.1058C107.688 18.8314 107.29 18.6942 106.813 18.6942C106.332 18.6942 105.927 18.8314 105.599 19.1058C105.275 19.3802 105.03 19.7536 104.864 20.2259C104.702 20.6982 104.621 21.2357 104.621 21.8384C104.621 22.4412 104.702 22.9787 104.864 23.451C105.03 23.9233 105.275 24.2966 105.599 24.571C105.927 24.8409 106.332 24.9759 106.813 24.9759ZM118.452 27.2024C117.391 27.2024 116.478 26.9775 115.713 26.5277C114.953 26.0734 114.368 25.4437 113.959 24.6385C113.554 23.8333 113.351 22.9067 113.351 21.8587C113.351 20.7971 113.556 19.866 113.965 19.0653C114.379 18.2602 114.966 17.6327 115.726 17.1829C116.487 16.7286 117.391 16.5014 118.439 16.5014C119.343 16.5014 120.135 16.6656 120.814 16.994C121.493 17.3223 122.031 17.7834 122.426 18.3771C122.822 18.9709 123.04 19.6681 123.081 20.4688H120.369C120.292 19.9515 120.09 19.5354 119.761 19.2205C119.437 18.9012 119.012 18.7415 118.486 18.7415C118.041 18.7415 117.652 18.8629 117.319 19.1058C116.99 19.3442 116.734 19.6928 116.55 20.1516C116.365 20.6104 116.273 21.166 116.273 21.8182C116.273 22.4794 116.363 23.0417 116.543 23.505C116.727 23.9683 116.986 24.3214 117.319 24.5643C117.652 24.8072 118.041 24.9286 118.486 24.9286C118.814 24.9286 119.109 24.8612 119.37 24.7262C119.635 24.5913 119.854 24.3956 120.024 24.1392C120.2 23.8783 120.315 23.5657 120.369 23.2013H123.081C123.036 23.993 122.82 24.6902 122.433 25.293C122.051 25.8912 121.522 26.359 120.848 26.6964C120.173 27.0337 119.374 27.2024 118.452 27.2024ZM127.795 21.0085V27H124.921V13.1818H127.715V18.4648H127.836C128.07 17.8531 128.448 17.3741 128.969 17.0277C129.491 16.6768 130.146 16.5014 130.933 16.5014C131.653 16.5014 132.28 16.6589 132.815 16.9737C133.355 17.2841 133.773 17.7317 134.07 18.3164C134.372 18.8967 134.52 19.5916 134.516 20.4013V27H131.641V20.9141C131.646 20.2753 131.484 19.7783 131.156 19.4229C130.832 19.0676 130.377 18.8899 129.793 18.8899C129.401 18.8899 129.055 18.9731 128.754 19.1396C128.457 19.306 128.223 19.5489 128.052 19.8683C127.885 20.1831 127.8 20.5632 127.795 21.0085ZM141.46 27.2024C140.412 27.2024 139.506 26.9798 138.741 26.5344C137.981 26.0846 137.394 25.4594 136.98 24.6587C136.566 23.8536 136.359 22.9202 136.359 21.8587C136.359 20.7881 136.566 19.8525 136.98 19.0518C137.394 18.2467 137.981 17.6214 138.741 17.1761C139.506 16.7263 140.412 16.5014 141.46 16.5014C142.508 16.5014 143.412 16.7263 144.173 17.1761C144.937 17.6214 145.526 18.2467 145.94 19.0518C146.354 19.8525 146.561 20.7881 146.561 21.8587C146.561 22.9202 146.354 23.8536 145.94 24.6587C145.526 25.4594 144.937 26.0846 144.173 26.5344C143.412 26.9798 142.508 27.2024 141.46 27.2024ZM141.474 24.9759C141.95 24.9759 142.349 24.8409 142.668 24.571C142.987 24.2966 143.228 23.9233 143.39 23.451C143.556 22.9787 143.639 22.4412 143.639 21.8384C143.639 21.2357 143.556 20.6982 143.39 20.2259C143.228 19.7536 142.987 19.3802 142.668 19.1058C142.349 18.8314 141.95 18.6942 141.474 18.6942C140.992 18.6942 140.588 18.8314 140.259 19.1058C139.935 19.3802 139.69 19.7536 139.524 20.2259C139.362 20.6982 139.281 21.2357 139.281 21.8384C139.281 22.4412 139.362 22.9787 139.524 23.451C139.69 23.9233 139.935 24.2966 140.259 24.571C140.588 24.8409 140.992 24.9759 141.474 24.9759Z" fill="white"/>
</svg>
